# xmcd
#
# Track frame offsets:
#	150
#	19732
#	43762
#	58075
#	86777
#	104587
#	120610
#	139135
#	157255
#	174410
#	197772
#	210527
#	225235
#	241252
#	256550
#	284315
#
# Disc length: 4110 seconds
# Revision: 1
# Processed by: cddbd v1.5.2PL0 Copyright (c) Steve Scherf et al.
# Submitted via: dBpowerAMP V12.0
#
DISCID=dd100c10
DTITLE=Norman Blake - Flower from the Fields of Alabama
DYEAR=2001
DGENRE=Country
TTITLE0=Salty Dog
TTITLE1=Bonaparte's Grand March
TTITLE2=The Slopes of Beech Mountain
TTITLE3=Sitting on Top of the World
TTITLE4=Radio Joe
TTITLE5=Chasin' Rainbows
TTITLE6=Flower from the Fields of Alabama
TTITLE7=Texas Gales
TTITLE8=All Go Hungry Hash House
TTITLE9=So Tired
TTITLE10=The Gambler's Dying Words
TTITLE11=Little Bunch of Roses
TTITLE12=Eastbound Freight Train
TTITLE13=The Burial of Wild Bill
TTITLE14=T.A.G. Railroad Rag
TTITLE15=If We Never Meet Again (This Side Of Heaven)
EXTD=
EXTT0=
EXTT1=
EXTT2=
EXTT3=
EXTT4=
EXTT5=
EXTT6=
EXTT7=
EXTT8=
EXTT9=
EXTT10=
EXTT11=
EXTT12=
EXTT13=
EXTT14=
EXTT15=
PLAYORDER=
